<svg id="Group_6" data-name="Group 6" xmlns="http://www.w3.org/2000/svg" xmlns:xlink="http://www.w3.org/1999/xlink" width="36" height="36" viewBox="0 0 36 36">
  <defs>
    <clipPath id="clip-path">
      <rect id="Rectangle_2" data-name="Rectangle 2" width="20" height="20" transform="translate(8 6)" fill="#fff"/>
    </clipPath>
  </defs>
  <g id="Group_7" data-name="Group 7">
    <circle id="Ellipse_3" data-name="Ellipse 3" cx="18" cy="18" r="18" fill="#0e3746"/>
    <g id="Group_5" data-name="Group 5" clip-path="url(#clip-path)">
      <path id="Path_7" data-name="Path 7" d="M18,14.75a1.212,1.212,0,0,1,.488.1,1.254,1.254,0,0,1,.391.264,1.362,1.362,0,0,1,.273.4,1.058,1.058,0,0,1,.1.488,1.212,1.212,0,0,1-.1.488,1.254,1.254,0,0,1-.264.391,1.364,1.364,0,0,1-.4.273,1.059,1.059,0,0,1-.488.1,1.212,1.212,0,0,1-.488-.1,1.255,1.255,0,0,1-.391-.264,1.362,1.362,0,0,1-.273-.4,1.058,1.058,0,0,1-.1-.488,1.212,1.212,0,0,1,.1-.488,1.254,1.254,0,0,1,.264-.391,1.362,1.362,0,0,1,.4-.273A1.058,1.058,0,0,1,18,14.75Zm5.625,2.5a4.237,4.237,0,0,1,1.7.342,4.541,4.541,0,0,1,1.4.938,4.214,4.214,0,0,1,.938,1.387A4.5,4.5,0,0,1,28,21.625a4.237,4.237,0,0,1-.342,1.7,4.541,4.541,0,0,1-.937,1.4,4.211,4.211,0,0,1-1.387.938A4.5,4.5,0,0,1,23.625,26a4.237,4.237,0,0,1-1.7-.342,4.537,4.537,0,0,1-1.4-.937,4.214,4.214,0,0,1-.937-1.387,4.5,4.5,0,0,1-.342-1.709,4.237,4.237,0,0,1,.342-1.7,4.542,4.542,0,0,1,.938-1.4,4.214,4.214,0,0,1,1.387-.937A4.5,4.5,0,0,1,23.625,17.25ZM20.5,21.625a3.028,3.028,0,0,0,.244,1.211,3.256,3.256,0,0,0,.664,1,3.03,3.03,0,0,0,1,.674,3.1,3.1,0,0,0,1.221.244,3.222,3.222,0,0,0,.9-.127,2.8,2.8,0,0,0,.82-.391l-4.326-4.326a2.943,2.943,0,0,0-.381.82A3.491,3.491,0,0,0,20.5,21.625Zm5.732,1.719a2.944,2.944,0,0,0,.381-.82,3.493,3.493,0,0,0,.137-.9,3.054,3.054,0,0,0-.918-2.2,3.4,3.4,0,0,0-1-.674,2.926,2.926,0,0,0-1.211-.254,3.218,3.218,0,0,0-.9.127,2.8,2.8,0,0,0-.82.391ZM14.25,16a3.62,3.62,0,0,0,.254,1.357,3.9,3.9,0,0,0,.7,1.143,3.6,3.6,0,0,0,1.055.82,4.056,4.056,0,0,0,1.328.41,3.548,3.548,0,0,0,.371.02h.381A5.6,5.6,0,0,0,18.059,21a11.058,11.058,0,0,1-2.871-.371,12.809,12.809,0,0,1-2.666-1.045A15.093,15.093,0,0,1,10.109,18,17.492,17.492,0,0,1,8,16a17.67,17.67,0,0,1,2.08-1.982,14.444,14.444,0,0,1,2.4-1.582,13.693,13.693,0,0,1,2.666-1.055A10.275,10.275,0,0,1,18,11a11.817,11.817,0,0,1,5.547,1.367,15.008,15.008,0,0,1,2.393,1.572A13.4,13.4,0,0,1,28,16l-.889.889-.078-.088a16.28,16.28,0,0,0-2.266-2.188,11.06,11.06,0,0,0-2.734-1.572,4.94,4.94,0,0,1,.713,1.406A5.272,5.272,0,0,1,23,16v.059a5.6,5.6,0,0,0-1.25.283V16a3.693,3.693,0,0,0-1.1-2.646,3.916,3.916,0,0,0-1.191-.8A3.729,3.729,0,0,0,18,12.25a3.693,3.693,0,0,0-2.646,1.1,3.916,3.916,0,0,0-.8,1.191A3.729,3.729,0,0,0,14.25,16Zm-.361,2.842a4.812,4.812,0,0,1-.664-1.348,4.991,4.991,0,0,1,.664-4.336,12.584,12.584,0,0,0-2.207,1.23A15.842,15.842,0,0,0,9.729,16a15.833,15.833,0,0,0,1.953,1.611A12.584,12.584,0,0,0,13.889,18.842Z" fill="#fff"/>
    </g>
  </g>
</svg>
