<svg id="Group_4" data-name="Group 4" xmlns="http://www.w3.org/2000/svg" width="36" height="36" viewBox="0 0 36 36">
  <circle id="Ellipse_2" data-name="Ellipse 2" cx="18" cy="18" r="18" fill="#0e3746"/>
  <path id="Path_6" data-name="Path 6" d="M27.5,13.361V28H11.25V8H22.139ZM22.5,13h2.861L22.5,10.139Zm3.75,1.25h-5v-5H12.5v17.5H26.25Zm-12.5,2.5H17.5V20.5H13.75ZM15,19.25h1.25V18H15Zm-1.25-7.5H17.5V15.5H13.75ZM15,14.25h1.25V13H15ZM18.75,18H25v1.25H18.75Zm-5,3.75H17.5V25.5H13.75ZM15,24.25h1.25V23H15ZM18.75,23H25v1.25H18.75Z" fill="#fff"/>
</svg>
