<?xml version="1.0" encoding="iso-8859-1"?>
<!-- Generator: Adobe Illustrator 19.0.0, SVG Export Plug-In . SVG Version: 6.00 Build 0)  -->
<svg version="1.1" id="Capa_1" xmlns="http://www.w3.org/2000/svg" xmlns:xlink="http://www.w3.org/1999/xlink" x="0px" y="0px"
	 viewBox="0 0 512 512" style="enable-background:new 0 0 512 512;" xml:space="preserve">
<rect x="115.2" y="76.8" style="fill:#0071BC;" width="324.267" height="426.667"/>
<path style="fill:#E6E6E6;" d="M81.067,469.333V42.667l0,0h324.267l0,0v401.067c0,14.14-11.46,25.6-25.6,25.6H81.067L81.067,469.333
	z"/>
<path style="fill:#29ABE2;" d="M379.733,469.333L379.733,469.333c-14.14,0-25.6-11.46-25.6-25.6v-25.6H29.867v25.6
	c0,14.14,11.46,25.6,25.6,25.6H379.733z"/>
<path style="fill:#0071BC;" d="M132.267,102.4c-14.14,0-25.6-11.46-25.6-25.6v-8.533h17.067V76.8c0,4.71,3.823,8.533,8.533,8.533
	S140.8,81.51,140.8,76.8V29.867c0-7.066-5.734-12.8-12.8-12.8c-7.066,0-12.8,5.734-12.8,12.8v12.8H98.133v-12.8
	C98.133,13.372,111.505,0,128,0s29.867,13.372,29.867,29.867V76.8C157.867,90.94,146.406,102.4,132.267,102.4z"/>
<g>
	<polygon style="fill:#DA4836;" points="294.4,153.6 277.333,153.6 277.333,170.667 260.267,170.667 260.267,187.733 
		277.333,187.733 277.333,204.8 294.4,204.8 294.4,187.733 311.467,187.733 311.467,170.667 294.4,170.667 	"/>
	<path style="fill:#DA4836;" d="M209.067,128c-3.49,0-6.63,2.116-7.927,5.359l-34.133,85.333l15.855,6.349l8.09-20.241h36.233
		l8.09,20.241l15.855-6.349l-34.133-85.333C215.697,130.116,212.557,128,209.067,128z M197.777,187.733l11.29-28.228l11.29,28.228
		H197.777z"/>
	<path style="fill:#DA4836;" d="M243.2,85.333c-65.877,0-119.467,42.112-119.467,93.867s53.589,93.867,119.467,93.867
		c18.611,0.043,37.06-3.43,54.374-10.24l-6.349-15.846c-15.292,6.007-31.59,9.071-48.026,9.02c-56.465,0-102.4-34.458-102.4-76.8
		s45.935-76.8,102.4-76.8s102.4,34.458,102.4,76.8c-0.503,18.586-8.806,36.096-22.861,48.265l11.588,12.527
		c17.57-15.377,27.861-37.444,28.339-60.791C362.667,127.445,309.077,85.333,243.2,85.333z"/>
</g>
<g>
	<rect x="149.333" y="298.667" style="fill:#999999;" width="17.067" height="17.067"/>
	<rect x="183.467" y="298.667" style="fill:#999999;" width="187.733" height="17.067"/>
	<rect x="115.2" y="332.8" style="fill:#999999;" width="256" height="17.067"/>
	<rect x="115.2" y="366.933" style="fill:#999999;" width="221.867" height="17.067"/>
	<rect x="465.067" y="366.933" style="fill:#999999;" width="17.067" height="110.933"/>
	<rect x="465.067" y="494.933" style="fill:#999999;" width="17.067" height="17.067"/>
	<rect x="38.4" y="119.467" style="fill:#999999;" width="17.067" height="110.933"/>
	<rect x="38.4" y="85.333" style="fill:#999999;" width="17.067" height="17.067"/>
</g>
<g>
</g>
<g>
</g>
<g>
</g>
<g>
</g>
<g>
</g>
<g>
</g>
<g>
</g>
<g>
</g>
<g>
</g>
<g>
</g>
<g>
</g>
<g>
</g>
<g>
</g>
<g>
</g>
<g>
</g>
</svg>