<svg xmlns="http://www.w3.org/2000/svg" width="103.44" height="100.378" viewBox="0 0 103.44 100.378">
  <g id="Group_10" data-name="Group 10" transform="translate(-32.56)">
    <path id="Path_9" data-name="Path 9" d="M89.706,36.031H67.384A3.208,3.208,0,0,1,64.846,34.8a3.281,3.281,0,0,1-.609-2.8,56.981,56.981,0,0,0,0-26.341,3.282,3.282,0,0,1,.609-2.8,3.207,3.207,0,0,1,2.538-1.236H89.706a3.258,3.258,0,0,1,3.2,2.744,95.516,95.516,0,0,1,0,28.932,3.259,3.259,0,0,1-3.2,2.744Z" fill="#e6e6e6"/>
    <path id="Path_10" data-name="Path 10" d="M67.384,3.3a1.54,1.54,0,0,0-1.219.593,1.6,1.6,0,0,0-.295,1.365,58.683,58.683,0,0,1,0,27.128,1.6,1.6,0,0,0,.295,1.365h0a1.54,1.54,0,0,0,1.219.593H89.706a1.565,1.565,0,0,0,1.542-1.313,93.826,93.826,0,0,0,0-28.419A1.565,1.565,0,0,0,89.706,3.3Z" fill="#fff"/>
    <path id="Path_11" data-name="Path 11" d="M84.835,11.414H73.121a1.685,1.685,0,0,1-1.679-1.688v-.66a1.686,1.686,0,0,1,1.679-1.688H84.835a1.686,1.686,0,0,1,1.68,1.688v.66a1.685,1.685,0,0,1-1.68,1.688Z" fill="#e6e6e6"/>
    <path id="Path_12" data-name="Path 12" d="M84.835,19.747H73.121a1.685,1.685,0,0,1-1.679-1.688V17.4a1.686,1.686,0,0,1,1.679-1.688H84.835a1.686,1.686,0,0,1,1.68,1.688v.66a1.685,1.685,0,0,1-1.68,1.688Z" fill="#e6e6e6"/>
    <path id="Path_13" data-name="Path 13" d="M84.835,28.08H73.121a1.685,1.685,0,0,1-1.679-1.688v-.66a1.685,1.685,0,0,1,1.679-1.688H84.835a1.685,1.685,0,0,1,1.68,1.688v.66a1.685,1.685,0,0,1-1.68,1.688Z" fill="#e6e6e6"/>
    <path id="Path_14" data-name="Path 14" d="M131.7,57.409H109.374a3.208,3.208,0,0,1-2.538-1.236,3.282,3.282,0,0,1-.609-2.8,56.991,56.991,0,0,0,0-26.341,3.281,3.281,0,0,1,.609-2.8,3.209,3.209,0,0,1,2.538-1.236H131.7a3.243,3.243,0,0,1,2.1.782,3.276,3.276,0,0,1,1.1,1.962,95.522,95.522,0,0,1,0,28.932,3.276,3.276,0,0,1-1.1,1.962A3.243,3.243,0,0,1,131.7,57.409Z" fill="#e6e6e6"/>
    <path id="Path_15" data-name="Path 15" d="M109.374,24.676a1.54,1.54,0,0,0-1.219.593,1.6,1.6,0,0,0-.295,1.365,58.679,58.679,0,0,1,0,27.128,1.6,1.6,0,0,0,.295,1.365h0a1.539,1.539,0,0,0,1.219.593H131.7a1.564,1.564,0,0,0,1.542-1.313,93.827,93.827,0,0,0,0-28.419,1.564,1.564,0,0,0-1.542-1.313Z" fill="#fff"/>
    <path id="Path_16" data-name="Path 16" d="M87.187,81.74H64.865a3.346,3.346,0,0,1-2.648-1.289,3.421,3.421,0,0,1-.635-2.924,56.84,56.84,0,0,0,0-26.276,3.422,3.422,0,0,1,.635-2.924,3.347,3.347,0,0,1,2.648-1.289H87.187a3.4,3.4,0,0,1,3.34,2.863,95.662,95.662,0,0,1,0,28.975,3.4,3.4,0,0,1-3.34,2.863Z" fill="#f2f2f2"/>
    <path id="Path_17" data-name="Path 17" d="M126.825,37.011H115.111a1.685,1.685,0,0,1-1.679-1.688v-.66a1.685,1.685,0,0,1,1.679-1.688h11.714a1.685,1.685,0,0,1,1.679,1.688v.66a1.685,1.685,0,0,1-1.679,1.688Z" fill="#e6e6e6"/>
    <path id="Path_18" data-name="Path 18" d="M126.825,45.344H115.111a1.685,1.685,0,0,1-1.679-1.688V43a1.685,1.685,0,0,1,1.679-1.688h11.714A1.685,1.685,0,0,1,128.5,43v.66a1.685,1.685,0,0,1-1.679,1.688Z" fill="#e6e6e6"/>
    <path id="Path_19" data-name="Path 19" d="M76.088,70.743a6.47,6.47,0,1,0-6.438-6.469A6.454,6.454,0,0,0,76.088,70.743Z" fill="#fff"/>
    <path id="Path_20" data-name="Path 20" d="M79.168,63.429H76.928v-2.25a.84.84,0,1,0-1.68,0v2.25h-2.24a.844.844,0,0,0,0,1.688h2.24v2.25a.846.846,0,0,0,.246.6.84.84,0,0,0,1.434-.6v-2.25h2.239a.837.837,0,0,0,.594-.247.844.844,0,0,0-.594-1.44Z" fill="#e6e6e6"/>
    <path id="Path_21" data-name="Path 21" d="M84.206,4.782H72.449a1.264,1.264,0,0,1-1.26-1.266V1.266A1.264,1.264,0,0,1,72.449,0H84.206a1.264,1.264,0,0,1,1.26,1.266v2.25a1.264,1.264,0,0,1-1.26,1.266Z" fill="#ccc"/>
    <path id="Path_22" data-name="Path 22" d="M126.756,26.441H115a1.264,1.264,0,0,1-1.26-1.266v-2.25A1.263,1.263,0,0,1,115,21.659h11.757a1.263,1.263,0,0,1,1.259,1.266v2.25a1.264,1.264,0,0,1-1.259,1.266Z" fill="#ccc"/>
    <path id="Path_23" data-name="Path 23" d="M55.168,100.132,34.555,91.526a3.224,3.224,0,0,1-1.872-2.12,3.281,3.281,0,0,1,.508-2.824A56.863,56.863,0,0,0,43.249,62.257,3.27,3.27,0,0,1,44.882,59.9,3.2,3.2,0,0,1,47.7,59.74l20.614,8.606a3.273,3.273,0,0,1,1.909,3.769A95.312,95.312,0,0,1,59.173,98.832a3.247,3.247,0,0,1-4,1.3Z" fill="#e6e6e6"/>
    <path id="Path_24" data-name="Path 24" d="M47.053,61.3a1.537,1.537,0,0,0-1.352.078,1.592,1.592,0,0,0-.794,1.147A58.563,58.563,0,0,1,34.549,87.575a1.6,1.6,0,0,0-.249,1.374h0a1.548,1.548,0,0,0,.9,1.018l20.614,8.606a1.559,1.559,0,0,0,1.925-.618A93.633,93.633,0,0,0,68.59,71.711a1.572,1.572,0,0,0-.923-1.807Z" fill="#fff"/>
    <path id="Path_25" data-name="Path 25" d="M58.029,80.456,47.212,75.94a1.692,1.692,0,0,1-.907-2.206l.252-.609a1.679,1.679,0,0,1,2.2-.911L59.57,76.73a1.692,1.692,0,0,1,.907,2.206l-.252.609a1.679,1.679,0,0,1-2.2.911Z" fill="#ff7575"/>
    <path id="Path_26" data-name="Path 26" d="M54.847,88.151,44.03,83.635a1.692,1.692,0,0,1-.907-2.206l.252-.609a1.678,1.678,0,0,1,2.2-.911l10.817,4.516a1.692,1.692,0,0,1,.907,2.206l-.252.609a1.679,1.679,0,0,1-2.2.911Z" fill="#ff7575"/>
    <path id="Path_27" data-name="Path 27" d="M62.363,69.641a1.253,1.253,0,0,1-.472-.093l-10.9-4.428a1.269,1.269,0,0,1-.7-1.648l.839-2.086a1.258,1.258,0,0,1,1.64-.7l10.9,4.428a1.269,1.269,0,0,1,.7,1.648l-.839,2.086a1.263,1.263,0,0,1-1.168.792Z" fill="#ccc"/>
  </g>
</svg>
