<svg width="30" height="30" viewBox="0 0 30 30" fill="none" xmlns="http://www.w3.org/2000/svg">
<circle cx="15" cy="15" r="15" fill="#0E3746"/>
<path d="M7.5 20V15C7.5 13.0109 8.29018 11.1032 9.6967 9.6967C11.1032 8.29018 13.0109 7.5 15 7.5C16.9891 7.5 18.8968 8.29018 20.3033 9.6967C21.7098 11.1032 22.5 13.0109 22.5 15V20" stroke="white" stroke-width="2" stroke-linecap="round" stroke-linejoin="round"/>
<path d="M22.5 20.8334C22.5 21.2754 22.3244 21.6994 22.0118 22.0119C21.6993 22.3245 21.2754 22.5001 20.8333 22.5001H20C19.558 22.5001 19.134 22.3245 18.8215 22.0119C18.5089 21.6994 18.3333 21.2754 18.3333 20.8334V18.3334C18.3333 17.8914 18.5089 17.4675 18.8215 17.1549C19.134 16.8423 19.558 16.6667 20 16.6667H22.5V20.8334ZM7.5 20.8334C7.5 21.2754 7.67559 21.6994 7.98816 22.0119C8.30072 22.3245 8.72464 22.5001 9.16667 22.5001H10C10.442 22.5001 10.866 22.3245 11.1785 22.0119C11.4911 21.6994 11.6667 21.2754 11.6667 20.8334V18.3334C11.6667 17.8914 11.4911 17.4675 11.1785 17.1549C10.866 16.8423 10.442 16.6667 10 16.6667H7.5V20.8334Z" stroke="white" stroke-width="2" stroke-linecap="round" stroke-linejoin="round"/>
</svg>
