<svg width="136" height="136" viewBox="0 0 136 136" fill="none" xmlns="http://www.w3.org/2000/svg">
<path d="M89.7063 36.0314H67.3842C66.8955 36.0329 66.4129 35.9224 65.9732 35.7082C65.5334 35.494 65.148 35.1819 64.8464 34.7956C64.5393 34.4056 64.3248 33.9503 64.2192 33.4645C64.1136 32.9786 64.1198 32.4749 64.2371 31.9918C66.2944 23.3331 66.2944 14.3093 64.237 5.65057C64.1197 5.16746 64.1136 4.66383 64.2192 4.178C64.3248 3.69217 64.5393 3.23694 64.8463 2.84695C65.148 2.46058 65.5333 2.14845 65.9731 1.93429C66.4129 1.72014 66.8955 1.60961 67.3842 1.61112H89.7063C90.477 1.61335 91.2219 1.89039 91.8083 2.39291C92.3947 2.89542 92.7846 3.59078 92.9084 4.35514C94.3775 13.9427 94.3775 23.6998 92.9084 33.2874C92.7846 34.0517 92.3947 34.7471 91.8083 35.2496C91.2219 35.7521 90.477 36.0292 89.7063 36.0314Z" fill="#E6E6E6"/>
<path d="M67.3842 3.29881C67.1495 3.29802 66.9178 3.35103 66.7065 3.45379C66.4953 3.55656 66.3102 3.70639 66.1653 3.89187C66.016 4.08191 65.9119 4.30365 65.8608 4.54022C65.8097 4.77679 65.8129 5.02196 65.8703 5.25708C67.9892 14.1745 67.9892 23.468 65.8704 32.3854C65.813 32.6205 65.8097 32.8656 65.8608 33.1021C65.9119 33.3387 66.016 33.5604 66.1652 33.7504L66.1653 33.7505C66.3102 33.936 66.4953 34.0859 66.7065 34.1887C66.9178 34.2915 67.1495 34.3445 67.3842 34.3437H89.7064C90.0765 34.3438 90.4346 34.2119 90.717 33.9715C90.9994 33.7311 91.1877 33.3978 91.2484 33.0309C92.6914 23.6133 92.6914 14.0292 91.2484 4.61155C91.1877 4.24468 90.9994 3.91137 90.717 3.67097C90.4346 3.43057 90.0765 3.29868 89.7064 3.29881L67.3842 3.29881Z" fill="white"/>
<path d="M84.8351 11.4142H73.1214C72.6761 11.4137 72.2492 11.2357 71.9344 10.9194C71.6195 10.603 71.4424 10.174 71.4419 9.72657V9.06706C71.4424 8.61962 71.6195 8.19066 71.9344 7.87427C72.2492 7.55788 72.6761 7.37992 73.1214 7.37943H84.8351C85.2804 7.37992 85.7073 7.55788 86.0222 7.87427C86.3371 8.19065 86.5142 8.61963 86.5147 9.06706V9.72658C86.5142 10.174 86.3371 10.603 86.0222 10.9194C85.7073 11.2358 85.2804 11.4137 84.8351 11.4142Z" fill="#E6E6E6"/>
<path d="M84.8351 19.7473H73.1214C72.6761 19.7468 72.2492 19.5689 71.9344 19.2525C71.6195 18.9361 71.4424 18.5071 71.4419 18.0597V17.4002C71.4424 16.9527 71.6195 16.5238 71.9344 16.2074C72.2492 15.891 72.6761 15.713 73.1214 15.7125H84.8351C85.2804 15.713 85.7073 15.891 86.0222 16.2074C86.3371 16.5238 86.5142 16.9527 86.5147 17.4002V18.0597C86.5142 18.5071 86.3371 18.9361 86.0222 19.2525C85.7073 19.5689 85.2804 19.7468 84.8351 19.7473Z" fill="#E6E6E6"/>
<path d="M84.8351 28.0803H73.1214C72.6761 28.0798 72.2492 27.9019 71.9344 27.5855C71.6195 27.2691 71.4424 26.8401 71.4419 26.3927V25.7332C71.4424 25.2858 71.6195 24.8568 71.9344 24.5404C72.2492 24.224 72.6761 24.0461 73.1214 24.0456H84.8351C85.2804 24.0461 85.7073 24.224 86.0222 24.5404C86.3371 24.8568 86.5142 25.2858 86.5147 25.7332V26.3927C86.5142 26.8401 86.3371 27.2691 86.0222 27.5855C85.7073 27.9019 85.2804 28.0798 84.8351 28.0803Z" fill="#E6E6E6"/>
<path d="M131.696 57.4089H109.374C108.885 57.4104 108.403 57.2998 107.963 57.0857C107.523 56.8715 107.138 56.5594 106.836 56.173C106.529 55.7831 106.315 55.3278 106.209 54.8419C106.103 54.3561 106.11 53.8524 106.227 53.3693C108.284 44.7105 108.284 35.6868 106.227 27.028C106.109 26.5449 106.103 26.0413 106.209 25.5555C106.315 25.0696 106.529 24.6144 106.836 24.2244C107.138 23.8381 107.523 23.5259 107.963 23.3118C108.403 23.0976 108.885 22.9871 109.374 22.9886H131.696C132.467 22.9908 133.212 23.2679 133.798 23.7704C134.384 24.2729 134.774 24.9683 134.898 25.7326C136.367 35.3202 136.367 45.0773 134.898 54.6649C134.774 55.4292 134.384 56.1246 133.798 56.6271C133.212 57.1296 132.467 57.4067 131.696 57.4089Z" fill="#E6E6E6"/>
<path d="M109.374 24.6763C109.139 24.6755 108.908 24.7285 108.696 24.8313C108.485 24.934 108.3 25.0839 108.155 25.2693C108.006 25.4594 107.902 25.6811 107.851 25.9177C107.799 26.1543 107.803 26.3994 107.86 26.6346C109.979 35.552 109.979 44.8454 107.86 53.7629C107.803 53.998 107.799 54.2431 107.851 54.4796C107.902 54.7162 108.006 54.9378 108.155 55.1278L108.155 55.128C108.3 55.3135 108.485 55.4634 108.696 55.5662C108.907 55.669 109.139 55.722 109.374 55.7212H131.696C132.066 55.7213 132.424 55.5894 132.707 55.349C132.989 55.1086 133.177 54.7753 133.238 54.4084C134.681 44.9908 134.681 35.4067 133.238 25.989C133.177 25.6222 132.989 25.2888 132.707 25.0484C132.424 24.808 132.066 24.6762 131.696 24.6763L109.374 24.6763Z" fill="white"/>
<path d="M87.1869 81.7398H64.8648C64.3549 81.7413 63.8514 81.626 63.3926 81.4026C62.9338 81.1791 62.5318 80.8535 62.2171 80.4504C61.8969 80.0437 61.6732 79.569 61.563 79.0624C61.4529 78.5557 61.4593 78.0305 61.5817 77.5267C63.6338 68.8896 63.6338 59.8883 61.5815 51.2512C61.4592 50.7474 61.4529 50.2222 61.563 49.7156C61.6731 49.209 61.8968 48.7343 62.217 48.3276C62.5317 47.9246 62.9338 47.5989 63.3926 47.3755C63.8514 47.152 64.3549 47.0367 64.8648 47.0382H87.1869C87.991 47.0407 88.7681 47.3298 89.3798 47.8541C89.9916 48.3785 90.3982 49.104 90.5274 49.9015C91.9986 59.5033 91.9986 69.2748 90.5274 78.8766C90.3982 79.674 89.9916 80.3996 89.3798 80.9239C88.7681 81.4482 87.991 81.7374 87.1869 81.7398Z" fill="#F2F2F2"/>
<path d="M126.825 37.0109H115.111C114.666 37.0104 114.239 36.8325 113.924 36.5161C113.609 36.1997 113.432 35.7707 113.432 35.3233V34.6638C113.432 34.2163 113.609 33.7874 113.924 33.471C114.239 33.1546 114.666 32.9766 115.111 32.9761H126.825C127.27 32.9766 127.697 33.1546 128.012 33.471C128.327 33.7874 128.504 34.2163 128.504 34.6638V35.3233C128.504 35.7707 128.327 36.1997 128.012 36.5161C127.697 36.8324 127.27 37.0104 126.825 37.0109Z" fill="#E6E6E6"/>
<path d="M126.825 45.344H115.111C114.666 45.3435 114.239 45.1655 113.924 44.8492C113.609 44.5328 113.432 44.1038 113.432 43.6564V42.9969C113.432 42.5494 113.609 42.1205 113.924 41.8041C114.239 41.4877 114.666 41.3097 115.111 41.3092H126.825C127.27 41.3097 127.697 41.4877 128.012 41.8041C128.327 42.1205 128.504 42.5494 128.504 42.9969V43.6564C128.504 44.1038 128.327 44.5328 128.012 44.8492C127.697 45.1655 127.27 45.3435 126.825 45.344Z" fill="#E6E6E6"/>
<path d="M76.0883 70.7426C79.6442 70.7426 82.5268 67.8461 82.5268 64.2731C82.5268 60.7 79.6442 57.8035 76.0883 57.8035C72.5325 57.8035 69.6499 60.7 69.6499 64.2731C69.6499 67.8461 72.5325 70.7426 76.0883 70.7426Z" fill="white"/>
<path d="M79.1677 63.4292H76.9283V61.1789C76.9283 60.9551 76.8398 60.7405 76.6823 60.5823C76.5248 60.424 76.3112 60.3351 76.0885 60.3351C75.8657 60.3351 75.6521 60.424 75.4946 60.5823C75.3372 60.7405 75.2487 60.9551 75.2487 61.1789V63.4292H73.0092C72.7865 63.4292 72.5729 63.5181 72.4154 63.6764C72.2579 63.8346 72.1694 64.0492 72.1694 64.273C72.1694 64.4968 72.2579 64.7115 72.4154 64.8697C72.5729 65.028 72.7865 65.1169 73.0092 65.1169H75.2487V67.3671C75.2487 67.5909 75.3372 67.8056 75.4946 67.9638C75.6521 68.1221 75.8657 68.211 76.0885 68.211C76.3112 68.211 76.5248 68.1221 76.6823 67.9638C76.8398 67.8056 76.9283 67.5909 76.9283 67.3671V65.1169H79.1677C79.3904 65.1169 79.6041 65.028 79.7615 64.8697C79.919 64.7115 80.0075 64.4968 80.0075 64.273C80.0075 64.0492 79.919 63.8346 79.7615 63.6764C79.6041 63.5181 79.3904 63.4292 79.1677 63.4292Z" fill="#E6E6E6"/>
<path d="M84.2065 4.7818H72.4494C72.1154 4.78142 71.7952 4.64794 71.5591 4.41065C71.3229 4.17335 71.1901 3.85162 71.1897 3.51603V1.26577C71.1901 0.930183 71.3229 0.608449 71.5591 0.371153C71.7952 0.133857 72.1154 0.0003782 72.4494 0H84.2065C84.5404 0.0003782 84.8606 0.133857 85.0968 0.371153C85.3329 0.608449 85.4658 0.930183 85.4661 1.26577V3.51603C85.4658 3.85162 85.3329 4.17335 85.0968 4.41065C84.8606 4.64794 84.5404 4.78142 84.2065 4.7818Z" fill="#CCCCCC"/>
<path d="M126.756 26.4406H114.999C114.665 26.4402 114.345 26.3067 114.108 26.0694C113.872 25.8321 113.739 25.5104 113.739 25.1748V22.9245C113.739 22.589 113.872 22.2672 114.108 22.0299C114.345 21.7926 114.665 21.6591 114.999 21.6588H126.756C127.09 21.6591 127.41 21.7926 127.646 22.0299C127.882 22.2672 128.015 22.589 128.015 22.9245V25.1748C128.015 25.5104 127.882 25.8321 127.646 26.0694C127.41 26.3067 127.09 26.4402 126.756 26.4406Z" fill="#CCCCCC"/>
<path d="M55.1682 100.132L34.5545 91.5257C34.1027 91.3386 33.6992 91.0505 33.3749 90.6832C33.0506 90.3159 32.8139 89.8791 32.6829 89.406C32.5482 88.9275 32.5239 88.4244 32.6119 87.935C32.6999 87.4456 32.8979 86.9829 33.1908 86.582C38.3969 79.3791 41.8425 71.0459 43.2488 62.2567C43.325 61.7654 43.5117 61.2979 43.7947 60.89C44.0777 60.4821 44.4496 60.1444 44.8821 59.9026C45.3081 59.6621 45.7832 59.5224 46.2711 59.4942C46.759 59.466 47.2469 59.55 47.6976 59.7398L68.3112 68.3458C69.0221 68.6449 69.6042 69.188 69.9539 69.8781C70.3035 70.5682 70.398 71.3607 70.2205 72.1143C67.9163 81.5345 64.1906 90.5448 59.173 98.8322C58.7668 99.4903 58.1412 99.9821 57.4078 100.22C56.6744 100.458 55.8807 100.427 55.1682 100.132Z" fill="#E6E6E6"/>
<path d="M47.0531 61.2982C46.8366 61.207 46.6024 61.1666 46.3681 61.1801C46.1338 61.1935 45.9056 61.2605 45.7009 61.3759C45.4906 61.4939 45.3097 61.6585 45.1722 61.8573C45.0347 62.056 44.9441 62.2837 44.9073 62.5229C43.4589 71.5748 39.9103 80.1569 34.5487 87.575C34.4059 87.77 34.3092 87.9951 34.2661 88.2332C34.2229 88.4713 34.2344 88.7162 34.2997 88.9492L34.2997 88.9493C34.3627 89.1765 34.4764 89.3863 34.6322 89.5626C34.788 89.739 34.9818 89.8773 35.1988 89.9671L55.8125 98.573C56.1543 98.7158 56.5354 98.7321 56.888 98.619C57.2405 98.5059 57.5417 98.2707 57.7379 97.9553C62.6664 89.8147 66.326 80.9642 68.5895 71.711C68.6736 71.3488 68.627 70.9684 68.458 70.6375C68.289 70.3066 68.0086 70.0468 67.6667 69.9042L47.0531 61.2982Z" fill="white"/>
<path d="M58.029 80.4558L47.2118 75.9397C46.8008 75.7676 46.4745 75.4387 46.3045 75.0251C46.1346 74.6116 46.1348 74.1471 46.3052 73.7338L46.557 73.1247C46.7283 72.7117 47.0557 72.3839 47.4673 72.2131C47.8788 72.0423 48.341 72.0426 48.7524 72.2138L59.5696 76.7299C59.9807 76.902 60.307 77.2309 60.4769 77.6445C60.6469 78.058 60.6466 78.5225 60.4762 78.9358L60.2244 79.5449C60.0531 79.9579 59.7257 80.2857 59.3142 80.4565C58.9026 80.6273 58.4404 80.627 58.029 80.4558Z" fill="#FF7575"/>
<path d="M54.8469 88.1512L44.0297 83.6351C43.6186 83.463 43.2924 83.1341 43.1224 82.7205C42.9524 82.307 42.9527 81.8425 43.1231 81.4292L43.3749 80.8201C43.5462 80.4071 43.8736 80.0793 44.2851 79.9085C44.6967 79.7377 45.1589 79.738 45.5703 79.9092L56.3875 84.4252C56.7985 84.5974 57.1248 84.9263 57.2948 85.3399C57.4647 85.7534 57.4645 86.2178 57.2941 86.6312L57.0423 87.2403C56.871 87.6533 56.5436 87.9811 56.132 88.1519C55.7205 88.3227 55.2583 88.3224 54.8469 88.1512Z" fill="#FF7575"/>
<path d="M62.3635 69.6405C62.2015 69.6403 62.0411 69.6088 61.8911 69.5475L50.9912 65.1194C50.6817 64.9932 50.4347 64.7489 50.3043 64.44C50.1738 64.1311 50.1707 63.7828 50.2955 63.4715L51.1349 61.3852C51.2602 61.074 51.5033 60.8256 51.8109 60.6945C52.1184 60.5634 52.4652 60.5605 52.7749 60.6863L63.6749 65.1144C63.9844 65.2406 64.2314 65.4849 64.3618 65.7938C64.4923 66.1027 64.4954 66.451 64.3706 66.7623L63.5312 68.8485C63.4368 69.0822 63.2754 69.2823 63.0674 69.4233C62.8595 69.5644 62.6144 69.64 62.3635 69.6405Z" fill="#CCCCCC"/>
</svg>
