<svg width="30" height="30" viewBox="0 0 30 30" fill="none" xmlns="http://www.w3.org/2000/svg">
<circle cx="15" cy="15" r="15" fill="#0E3746"/>
<path d="M21 15V22.5H9V15" stroke="white" stroke-width="2" stroke-linecap="round" stroke-linejoin="round"/>
<path d="M22.5 11.25H7.5V15H22.5V11.25Z" stroke="white" stroke-width="2" stroke-linecap="round" stroke-linejoin="round"/>
<path d="M15 22.5V11.25" stroke="white" stroke-width="2" stroke-linecap="round" stroke-linejoin="round"/>
<path d="M15 11.25H11.625C11.1277 11.25 10.6508 11.0525 10.2992 10.7008C9.94754 10.3492 9.75 9.87228 9.75 9.375C9.75 8.87772 9.94754 8.40081 10.2992 8.04917C10.6508 7.69754 11.1277 7.5 11.625 7.5C14.25 7.5 15 11.25 15 11.25Z" stroke="white" stroke-width="2" stroke-linecap="round" stroke-linejoin="round"/>
<path d="M15 11.25H18.375C18.8723 11.25 19.3492 11.0525 19.7008 10.7008C20.0525 10.3492 20.25 9.87228 20.25 9.375C20.25 8.87772 20.0525 8.40081 19.7008 8.04917C19.3492 7.69754 18.8723 7.5 18.375 7.5C15.75 7.5 15 11.25 15 11.25Z" stroke="white" stroke-width="2" stroke-linecap="round" stroke-linejoin="round"/>
</svg>
