<svg width="24" height="24" viewBox="0 0 24 24" fill="none" xmlns="http://www.w3.org/2000/svg">
<path d="M19.5001 3.75049H4.50011C3.25747 3.75049 2.25011 4.75785 2.25011 6.00049V18.0005C2.25011 19.2431 3.25747 20.2505 4.50011 20.2505H19.5001C20.7427 20.2505 21.7501 19.2431 21.7501 18.0005V6.00049C21.7501 4.75785 20.7427 3.75049 19.5001 3.75049Z" stroke="black" stroke-width="1.5" stroke-linejoin="round"/>
<path d="M15.75 9.75C16.5784 9.75 17.25 9.07843 17.25 8.25C17.25 7.42157 16.5784 6.75 15.75 6.75C14.9216 6.75 14.25 7.42157 14.25 8.25C14.25 9.07843 14.9216 9.75 15.75 9.75Z" stroke="black" stroke-width="1.5" stroke-miterlimit="10"/>
<path d="M14.2501 15.7395L10.0004 11.4978C9.73 11.2275 9.36653 11.0706 8.98431 11.0593C8.60209 11.0479 8.22997 11.183 7.94401 11.4369L2.25011 16.4994" stroke="black" stroke-width="1.5" stroke-linecap="round" stroke-linejoin="round"/>
<path d="M10.5 20.2503L16.2815 14.4687C16.5459 14.2038 16.8998 14.0473 17.2737 14.0299C17.6476 14.0126 18.0145 14.1357 18.3023 14.375L21.75 17.2503" stroke="black" stroke-width="1.5" stroke-linecap="round" stroke-linejoin="round"/>
</svg>
