<svg width="24" height="24" viewBox="0 0 24 24" fill="none" xmlns="http://www.w3.org/2000/svg">
<path d="M19.5 10.3716V19.5005C19.5 20.0973 19.263 20.6696 18.841 21.0915C18.4191 21.5135 17.8468 21.7505 17.25 21.7505H6.75003C6.15329 21.7505 5.581 21.5135 5.15904 21.0915C4.73708 20.6696 4.50003 20.0973 4.50003 19.5005V4.50055C4.50003 3.90381 4.73708 3.33152 5.15904 2.90956C5.581 2.4876 6.15329 2.25055 6.75003 2.25055H11.3789C11.7766 2.25061 12.158 2.40859 12.4392 2.68977L19.0608 9.31133C19.342 9.59257 19.5 9.97395 19.5 10.3716Z" stroke="black" stroke-width="1.5" stroke-linejoin="round"/>
<path d="M12 2.62561V8.25061C12 8.64843 12.158 9.02996 12.4393 9.31127C12.7206 9.59257 13.1022 9.75061 13.5 9.75061H19.125" stroke="black" stroke-width="1.5" stroke-linecap="round" stroke-linejoin="round"/>
</svg>
