<svg width="24" height="24" viewBox="0 0 24 24" fill="none" xmlns="http://www.w3.org/2000/svg">
<path d="M17.2499 2.25098H6.74991C5.92148 2.25098 5.24991 2.92255 5.24991 3.75098V20.251C5.24991 21.0794 5.92148 21.751 6.74991 21.751H17.2499C18.0783 21.751 18.7499 21.0794 18.7499 20.251V3.75098C18.7499 2.92255 18.0783 2.25098 17.2499 2.25098Z" stroke="black" stroke-width="1.5" stroke-linecap="round" stroke-linejoin="round"/>
<path d="M16.4998 5.25024H7.50032V8.25024H16.4998V5.25024Z" stroke="black" stroke-width="1.5" stroke-linecap="round" stroke-linejoin="round"/>
<path d="M7.87484 12.7512C8.49616 12.7512 8.99984 12.2475 8.99984 11.6262C8.99984 11.0049 8.49616 10.5012 7.87484 10.5012C7.25352 10.5012 6.74984 11.0049 6.74984 11.6262C6.74984 12.2475 7.25352 12.7512 7.87484 12.7512Z" fill="black"/>
<path d="M12 12.7512C12.6213 12.7512 13.125 12.2475 13.125 11.6262C13.125 11.0049 12.6213 10.5012 12 10.5012C11.3786 10.5012 10.875 11.0049 10.875 11.6262C10.875 12.2475 11.3786 12.7512 12 12.7512Z" fill="black"/>
<path d="M16.1249 12.7512C16.7462 12.7512 17.2499 12.2475 17.2499 11.6262C17.2499 11.0049 16.7462 10.5012 16.1249 10.5012C15.5036 10.5012 14.9999 11.0049 14.9999 11.6262C14.9999 12.2475 15.5036 12.7512 16.1249 12.7512Z" fill="black"/>
<path d="M7.87484 16.501C8.49616 16.501 8.99984 15.9973 8.99984 15.376C8.99984 14.7547 8.49616 14.251 7.87484 14.251C7.25352 14.251 6.74984 14.7547 6.74984 15.376C6.74984 15.9973 7.25352 16.501 7.87484 16.501Z" fill="black"/>
<path d="M12 16.501C12.6213 16.501 13.125 15.9973 13.125 15.376C13.125 14.7547 12.6213 14.251 12 14.251C11.3786 14.251 10.875 14.7547 10.875 15.376C10.875 15.9973 11.3786 16.501 12 16.501Z" fill="black"/>
<path d="M7.87484 20.2507C8.49616 20.2507 8.99984 19.7471 8.99984 19.1257C8.99984 18.5044 8.49616 18.0007 7.87484 18.0007C7.25352 18.0007 6.74984 18.5044 6.74984 19.1257C6.74984 19.7471 7.25352 20.2507 7.87484 20.2507Z" fill="black"/>
<path d="M12 20.2507C12.6213 20.2507 13.125 19.7471 13.125 19.1257C13.125 18.5044 12.6213 18.0007 12 18.0007C11.3786 18.0007 10.875 18.5044 10.875 19.1257C10.875 19.7471 11.3786 20.2507 12 20.2507Z" fill="black"/>
<path d="M17.2499 15.376C17.2499 14.7547 16.7462 14.251 16.1249 14.251C15.5036 14.251 14.9999 14.7547 14.9999 15.376V19.126C14.9999 19.7473 15.5036 20.251 16.1249 20.251C16.7462 20.251 17.2499 19.7473 17.2499 19.126V15.376Z" fill="black"/>
</svg>
