<svg width="30" height="32" viewBox="0 0 30 32" fill="none" xmlns="http://www.w3.org/2000/svg">
<circle cx="15" cy="15" r="15" fill="#0E3746"/>
<path d="M21 5H8.4V23.9H21V5ZM9.54545 22.7187V6.18125H19.8545V22.7187H9.54545ZM10.6909 7.3625V10.9062H18.7091V7.3625H10.6909ZM11.8364 9.725V8.54375H17.5636V9.725H11.8364ZM17.5636 13.2687V14.45H18.7091V13.2687H17.5636ZM15.2727 14.45V13.2687H14.1273V14.45H15.2727ZM11.8364 14.45V13.2687H10.6909V14.45H11.8364ZM17.5636 16.8125V17.9937H18.7091V16.8125H17.5636ZM15.2727 17.9937V16.8125H14.1273V17.9937H15.2727ZM11.8364 17.9937V16.8125H10.6909V17.9937H11.8364ZM17.5636 20.3562V21.5375H18.7091V20.3562H17.5636ZM15.2727 21.5375V20.3562H14.1273V21.5375H15.2727ZM11.8364 21.5375V20.3562H10.6909V21.5375H11.8364Z" fill="white"/>
</svg>
