<svg width="30" height="30" viewBox="0 0 30 30" fill="none" xmlns="http://www.w3.org/2000/svg">
<circle cx="15" cy="15" r="15" fill="#0E3746"/>
<path d="M17.2355 11.3967C17.0909 11.5443 17.0099 11.7426 17.0099 11.9492C17.0099 12.1558 17.0909 12.3542 17.2355 12.5017L18.4983 13.7645C18.6458 13.9091 18.8442 13.9901 19.0508 13.9901C19.2574 13.9901 19.4557 13.9091 19.6033 13.7645L22.5788 10.789C22.9757 11.666 23.0958 12.6432 22.9233 13.5902C22.7507 14.5373 22.2937 15.4092 21.613 16.0899C20.9323 16.7706 20.0603 17.2277 19.1133 17.4003C18.1662 17.5728 17.1891 17.4526 16.312 17.0558L10.8582 22.5096C10.5442 22.8236 10.1183 23 9.67429 23C9.23024 23 8.80438 22.8236 8.49039 22.5096C8.1764 22.1956 8 21.7698 8 21.3257C8 20.8817 8.1764 20.4558 8.49039 20.1418L13.9442 14.688C13.5474 13.8109 13.4272 12.8338 13.5997 11.8867C13.7723 10.9397 14.2294 10.0677 14.9101 9.38703C15.5908 8.70634 16.4627 8.24926 17.4098 8.0767C18.3568 7.90415 19.334 8.02431 20.211 8.42119L17.2434 11.3888L17.2355 11.3967Z" stroke="white" stroke-width="2" stroke-linecap="round" stroke-linejoin="round"/>
</svg>
